{
  "id": 2,
  "video_file": "vsshort-vorbis-subs.mkv",
  "duration": 71,
  "list_video_track": {
    "0": {
      "width": 640,
      "height": 352
    }
  },
  "list_audio_track": {
    "1": {
      "sample_rate": "48000",
      "channels": 2
    }
  },
  "list_subtitle_track": {
    "2": {
      "language": ""
    },
    "3": {
      "language": ""
    }
  },
  "list_image_track": {},
  "list_mp4_files": {
    "360": "0002/360p.mp4"
  },
  "list_hls_files": {
    "360": "0002/360p.m3u8"
  },
  "list_mp3_files": {
    "192k": "0002/audio_192k.mp3"
  },
  "list_m4a_files": {},
  "list_thumbnail_files": {
    "1": "0002/thumbnail_1.png",
    "2": "0002/thumbnail_2.png",
    "3": "0002/thumbnail_3.png"
  },
  "list_overview_files": {
    "0": "0002/overview.png",
    "1": "0002/overview.vtt"
  },
  "encoding_log": {
    "probe_cmd": {
      "command": "ffprobe -v quiet -show_format -show_streams                     -print_format json -i \"vsshort-vorbis-subs.mkv\"",
      "result": true,
      "msg": "--> get_info_video\nffprobe -v quiet -show_format -show_streams                     -print_format json -i \"vsshort-vorbis-subs.mkv\"\n{\n  \"streams\": [\n    {\n      \"index\": 0,\n      \"codec_name\": \"msmpeg4v3\",\n      \"codec_long_name\": \"MPEG-4 part 2 Microsoft variant version 3\",\n      \"codec_type\": \"video\",\n      \"codec_time_base\": \"125/2997\",\n      \"codec_tag_string\": \"DIV3\",\n      \"codec_tag\": \"0x33564944\",\n      \"width\": 640,\n      \"height\": 352,\n      \"coded_width\": 640,\n      \"coded_height\": 352,\n      \"has_b_frames\": 0,\n      \"sample_aspect_ratio\": \"1:1\",\n      \"display_aspect_ratio\": \"20:11\",\n      \"pix_fmt\": \"yuv420p\",\n      \"level\": -99,\n      \"refs\": 1,\n      \"r_frame_rate\": \"2997/125\",\n      \"avg_frame_rate\": \"2997/125\",\n      \"time_base\": \"1/1000\",\n      \"start_pts\": 0,\n      \"start_time\": \"0.000000\",\n      \"disposition\": {\n        \"default\": 1,\n        \"dub\": 0,\n        \"original\": 0,\n        \"comment\": 0,\n        \"lyrics\": 0,\n        \"karaoke\": 0,\n        \"forced\": 0,\n        \"hearing_impaired\": 0,\n        \"visual_impaired\": 0,\n        \"clean_effects\": 0,\n        \"attached_pic\": 0,\n        \"timed_thumbnails\": 0\n      }\n    },\n    {\n      \"index\": 1,\n      \"codec_name\": \"vorbis\",\n      \"codec_long_name\": \"Vorbis\",\n      \"codec_type\": \"audio\",\n      \"codec_time_base\": \"1/48000\",\n      \"codec_tag_string\": \"[0][0][0][0]\",\n      \"codec_tag\": \"0x0000\",\n      \"sample_fmt\": \"fltp\",\n      \"sample_rate\": \"48000\",\n      \"channels\": 2,\n      \"channel_layout\": \"stereo\",\n      \"bits_per_sample\": 0,\n      \"r_frame_rate\": \"0/0\",\n      \"avg_frame_rate\": \"0/0\",\n      \"time_base\": \"1/1000\",\n      \"start_pts\": 0,\n      \"start_time\": \"0.000000\",\n      \"disposition\": {\n        \"default\": 1,\n        \"dub\": 0,\n        \"original\": 0,\n        \"comment\": 0,\n        \"lyrics\": 0,\n        \"karaoke\": 0,\n        \"forced\": 0,\n        \"hearing_impaired\": 0,\n        \"visual_impaired\": 0,\n        \"clean_effects\": 0,\n        \"attached_pic\": 0,\n        \"timed_thumbnails\": 0\n      }\n    },\n    {\n      \"index\": 2,\n      \"codec_name\": \"subrip\",\n      \"codec_long_name\": \"SubRip subtitle\",\n      \"codec_type\": \"subtitle\",\n      \"codec_time_base\": \"0/1\",\n      \"codec_tag_string\": \"[0][0][0][0]\",\n      \"codec_tag\": \"0x0000\",\n      \"r_frame_rate\": \"0/0\",\n      \"avg_frame_rate\": \"0/0\",\n      \"time_base\": \"1/1000\",\n      \"start_pts\": 0,\n      \"start_time\": \"0.000000\",\n      \"duration_ts\": 71255,\n      \"duration\": \"71.255000\",\n      \"disposition\": {\n        \"default\": 1,\n        \"dub\": 0,\n        \"original\": 0,\n        \"comment\": 0,\n        \"lyrics\": 0,\n        \"karaoke\": 0,\n        \"forced\": 0,\n        \"hearing_impaired\": 0,\n        \"visual_impaired\": 0,\n        \"clean_effects\": 0,\n        \"attached_pic\": 0,\n        \"timed_thumbnails\": 0\n      }\n    },\n    {\n      \"index\": 3,\n      \"codec_name\": \"subrip\",\n      \"codec_long_name\": \"SubRip subtitle\",\n      \"codec_type\": \"subtitle\",\n      \"codec_time_base\": \"0/1\",\n      \"codec_tag_string\": \"[0][0][0][0]\",\n      \"codec_tag\": \"0x0000\",\n      \"r_frame_rate\": \"0/0\",\n      \"avg_frame_rate\": \"0/0\",\n      \"time_base\": \"1/1000\",\n      \"start_pts\": 0,\n      \"start_time\": \"0.000000\",\n      \"duration_ts\": 71255,\n      \"duration\": \"71.255000\",\n      \"disposition\": {\n        \"default\": 0,\n        \"dub\": 0,\n        \"original\": 0,\n        \"comment\": 0,\n        \"lyrics\": 0,\n        \"karaoke\": 0,\n        \"forced\": 0,\n        \"hearing_impaired\": 0,\n        \"visual_impaired\": 0,\n        \"clean_effects\": 0,\n        \"attached_pic\": 0,\n        \"timed_thumbnails\": 0\n      }\n    }\n  ],\n  \"format\": {\n    \"filename\": \"vsshort-vorbis-subs.mkv\",\n    \"nb_streams\": 4,\n    \"nb_programs\": 0,\n    \"format_name\": \"matroska,webm\",\n    \"format_long_name\": \"Matroska / WebM\",\n    \"start_time\": \"0.000000\",\n    \"duration\": \"71.255000\",\n    \"size\": \"11888787\",\n    \"bit_rate\": \"1334787\",\n    \"probe_score\": 100,\n    \"tags\": {\n      \"encoder\": \"libebml v0.7.1 + libmatroska v0.7.2\",\n      \"creation_time\": \"2004-08-10T09:29:39.000000Z\"\n    }\n  }\n} \n\n"
    },
    "mp4_command": {
      "command": "ffmpeg -hide_banner -threads 0 -i vsshort-vorbis-subs.mkv -map 0:v:0 -map 0:a:0 -c:v libx264  -vf \"scale=-2:360\" -preset slow -profile:v high -pix_fmt yuv420p -level 3 -crf 20 -maxrate 1000k -bufsize 1000k -sc_threshold 0 -force_key_frames \"expr:gte(t,n_forced*1)\" -max_muxing_queue_size 4000 -c:a aac -ar 48000 -b:a 96k -movflags faststart -y -vsync 0 \"0002/360p.mp4\" ",
      "result": true,
      "msg": "ffmpeg -hide_banner -threads 0 -i vsshort-vorbis-subs.mkv -map 0:v:0 -map 0:a:0 -c:v libx264  -vf \"scale=-2:360\" -preset slow -profile:v high -pix_fmt yuv420p -level 3 -crf 20 -maxrate 1000k -bufsize 1000k -sc_threshold 0 -force_key_frames \"expr:gte(t,n_forced*1)\" -max_muxing_queue_size 4000 -c:a aac -ar 48000 -b:a 96k -movflags faststart -y -vsync 0 \"0002/360p.mp4\" \nEncode file in 5.72s.\nInput #0, matroska,webm, from 'vsshort-vorbis-subs.mkv':\n  Metadata:\n    encoder         : libebml v0.7.1 + libmatroska v0.7.2\n    creation_time   : 2004-08-10T09:29:39.000000Z\n  Duration: 00:01:11.26, start: 0.000000, bitrate: 1334 kb/s\n    Stream #0:0: Video: msmpeg4v3 (DIV3 / 0x33564944), yuv420p, 640x352, SAR 1:1 DAR 20:11, 23.98 fps, 23.98 tbr, 1k tbn, 1k tbc (default)\n    Stream #0:1: Audio: vorbis, 48000 Hz, stereo, fltp (default)\n    Stream #0:2: Subtitle: subrip (default)\n    Stream #0:3: Subtitle: subrip\nStream mapping:\n  Stream #0:0 -> #0:0 (msmpeg4v3 (msmpeg4) -> h264 (libx264))\n  Stream #0:1 -> #0:1 (vorbis (native) -> aac (native))\nPress [q] to stop, [?] for help\n[libx264 @ 0x557e9c3fd600] using SAR=1200/1199\n[libx264 @ 0x557e9c3fd600] using cpu capabilities: MMX2 SSE2Fast SSSE3 SSE4.2 AVX FMA3 BMI2 AVX2\n[libx264 @ 0x557e9c3fd600] profile High, level 3.0\n[libx264 @ 0x557e9c3fd600] 264 - core 155 r2917 0a84d98 - H.264/MPEG-4 AVC codec - Copyleft 2003-2018 - http://www.videolan.org/x264.html - options: cabac=1 ref=5 deblock=1:0:0 analyse=0x3:0x113 me=hex subme=8 psy=1 psy_rd=1.00:0.00 mixed_ref=1 me_range=16 chroma_me=1 trellis=2 8x8dct=1 cqm=0 deadzone=21,11 fast_pskip=1 chroma_qp_offset=-2 threads=11 lookahead_threads=1 sliced_threads=0 nr=0 decimate=1 interlaced=0 bluray_compat=0 constrained_intra=0 bframes=3 b_pyramid=2 b_adapt=1 b_bias=0 direct=3 weightb=1 open_gop=0 weightp=2 keyint=250 keyint_min=23 scenecut=0 intra_refresh=0 rc_lookahead=50 rc=crf mbtree=1 crf=20.0 qcomp=0.60 qpmin=0 qpmax=69 qpstep=4 vbv_maxrate=1000 vbv_bufsize=1000 crf_max=0.0 nal_hrd=none filler=0 ip_ratio=1.40 aq=1:1.00\nOutput #0, mp4, to '0002/360p.mp4':\n  Metadata:\n    encoder         : Lavf58.20.100\n    Stream #0:0: Video: h264 (libx264) (avc1 / 0x31637661), yuv420p(progressive), 654x360 [SAR 1200:1199 DAR 20:11], q=-1--1, 23.98 fps, 11988 tbn, 23.98 tbc (default)\n    Metadata:\n      encoder         : Lavc58.35.100 libx264\n    Side data:\n      cpb: bitrate max/min/avg: 1000000/0/0 buffer size: 1000000 vbv_delay: -1\n    Stream #0:1: Audio: aac (LC) (mp4a / 0x6134706D), 48000 Hz, stereo, fltp, 96 kb/s (default)\n    Metadata:\n      encoder         : Lavc58.35.100 aac\nframe=  172 fps=0.0 q=25.0 size=     256kB time=00:00:07.08 bitrate= 296.1kbits/s speed=  14x    \rframe=  326 fps=323 q=25.0 size=     768kB time=00:00:13.56 bitrate= 463.7kbits/s speed=13.4x    \rframe=  461 fps=305 q=25.0 size=    1536kB time=00:00:19.34 bitrate= 650.3kbits/s speed=12.8x    \rframe=  608 fps=302 q=22.0 size=    2048kB time=00:00:25.32 bitrate= 662.6kbits/s speed=12.6x    \rframe=  773 fps=306 q=25.0 size=    2560kB time=00:00:32.14 bitrate= 652.3kbits/s speed=12.7x    \rframe=  917 fps=303 q=25.0 size=    3328kB time=00:00:38.16 bitrate= 714.3kbits/s speed=12.6x    \rframe= 1058 fps=300 q=25.0 size=    3840kB time=00:00:44.09 bitrate= 713.4kbits/s speed=12.5x    \rframe= 1204 fps=299 q=25.0 size=    4352kB time=00:00:50.15 bitrate= 710.9kbits/s speed=12.4x    \rframe= 1367 fps=302 q=25.0 size=    5120kB time=00:00:57.04 bitrate= 735.3kbits/s speed=12.6x    \rframe= 1540 fps=306 q=25.0 size=    5376kB time=00:01:04.14 bitrate= 686.5kbits/s speed=12.7x    \r[mp4 @ 0x557e9c3e2140] Starting second pass: moving the moov atom to the beginning of the file\nframe= 1673 fps=295 q=-1.0 Lsize=    6454kB time=00:01:09.78 bitrate= 757.6kbits/s speed=12.3x    \nvideo:5570kB audio:821kB subtitle:0kB other streams:0kB global headers:0kB muxing overhead: 0.977235%\n[libx264 @ 0x557e9c3fd600] frame I:70    Avg QP:17.12  size: 19764\n[libx264 @ 0x557e9c3fd600] frame P:442   Avg QP:19.85  size:  5974\n[libx264 @ 0x557e9c3fd600] frame B:1161  Avg QP:22.91  size:  1446\n[libx264 @ 0x557e9c3fd600] consecutive B-frames:  5.9%  1.4% 10.2% 82.5%\n[libx264 @ 0x557e9c3fd600] mb I  I16..4:  8.7% 75.4% 15.9%\n[libx264 @ 0x557e9c3fd600] mb P  I16..4:  2.0%  9.9%  1.3%  P16..4: 41.4% 19.6%  9.8%  0.0%  0.0%    skip:16.1%\n[libx264 @ 0x557e9c3fd600] mb B  I16..4:  0.1%  0.7%  0.1%  B16..8: 40.5%  5.8%  1.0%  direct: 1.9%  skip:49.8%  L0:39.3% L1:51.4% BI: 9.3%\n[libx264 @ 0x557e9c3fd600] 8x8 transform intra:75.6% inter:77.2%\n[libx264 @ 0x557e9c3fd600] direct mvs  spatial:99.5% temporal:0.5%\n[libx264 @ 0x557e9c3fd600] coded y,uvDC,uvAC intra: 80.1% 77.8% 45.5% inter: 13.3% 15.0% 0.3%\n[libx264 @ 0x557e9c3fd600] i16 v,h,dc,p: 64% 10%  3% 23%\n[libx264 @ 0x557e9c3fd600] i8 v,h,dc,ddl,ddr,vr,hd,vl,hu: 24% 11%  6%  7% 10% 12% 10% 10%  9%\n[libx264 @ 0x557e9c3fd600] i4 v,h,dc,ddl,ddr,vr,hd,vl,hu: 29% 10%  3%  7% 12% 13% 10%  8%  7%\n[libx264 @ 0x557e9c3fd600] i8c dc,h,v,p: 30% 24% 32% 14%\n[libx264 @ 0x557e9c3fd600] Weighted P-Frames: Y:0.7% UV:0.0%\n[libx264 @ 0x557e9c3fd600] ref P L0: 61.8% 13.7% 15.2%  5.2%  3.8%  0.1%  0.0%\n[libx264 @ 0x557e9c3fd600] ref B L0: 89.8%  7.4%  2.2%  0.6%\n[libx264 @ 0x557e9c3fd600] ref B L1: 96.9%  3.1%\n[libx264 @ 0x557e9c3fd600] kb/s:653.87\n[aac @ 0x557e9c422fc0] Qavg: 195.374\n\n"
    },
    "hls_command": {
      "command": "ffmpeg -hide_banner -threads 0 -i vsshort-vorbis-subs.mkv -map 0:v:0 -map 0:a:0 -c:v libx264  -vf \"scale=-2:360\" -preset slow -profile:v high -pix_fmt yuv420p -level 3 -crf 20 -maxrate 1000k -bufsize 1000k -sc_threshold 0 -force_key_frames \"expr:gte(t,n_forced*1)\" -max_muxing_queue_size 4000 -c:a aac -ar 48000 -b:a 96k -hls_playlist_type vod -hls_time 2 -hls_flags single_file -master_pl_name \"livestream.m3u8\" -y -vsync 0 \"0002/360p.m3u8\" ",
      "result": true,
      "msg": "ffmpeg -hide_banner -threads 0 -i vsshort-vorbis-subs.mkv -map 0:v:0 -map 0:a:0 -c:v libx264  -vf \"scale=-2:360\" -preset slow -profile:v high -pix_fmt yuv420p -level 3 -crf 20 -maxrate 1000k -bufsize 1000k -sc_threshold 0 -force_key_frames \"expr:gte(t,n_forced*1)\" -max_muxing_queue_size 4000 -c:a aac -ar 48000 -b:a 96k -hls_playlist_type vod -hls_time 2 -hls_flags single_file -master_pl_name \"livestream.m3u8\" -y -vsync 0 \"0002/360p.m3u8\" \nEncode file in 5.83s.\nInput #0, matroska,webm, from 'vsshort-vorbis-subs.mkv':\n  Metadata:\n    encoder         : libebml v0.7.1 + libmatroska v0.7.2\n    creation_time   : 2004-08-10T09:29:39.000000Z\n  Duration: 00:01:11.26, start: 0.000000, bitrate: 1334 kb/s\n    Stream #0:0: Video: msmpeg4v3 (DIV3 / 0x33564944), yuv420p, 640x352, SAR 1:1 DAR 20:11, 23.98 fps, 23.98 tbr, 1k tbn, 1k tbc (default)\n    Stream #0:1: Audio: vorbis, 48000 Hz, stereo, fltp (default)\n    Stream #0:2: Subtitle: subrip (default)\n    Stream #0:3: Subtitle: subrip\nStream mapping:\n  Stream #0:0 -> #0:0 (msmpeg4v3 (msmpeg4) -> h264 (libx264))\n  Stream #0:1 -> #0:1 (vorbis (native) -> aac (native))\nPress [q] to stop, [?] for help\n[libx264 @ 0x559fa49d7a80] using SAR=1200/1199\n[libx264 @ 0x559fa49d7a80] using cpu capabilities: MMX2 SSE2Fast SSSE3 SSE4.2 AVX FMA3 BMI2 AVX2\n[libx264 @ 0x559fa49d7a80] profile High, level 3.0\n[libx264 @ 0x559fa49d7a80] 264 - core 155 r2917 0a84d98 - H.264/MPEG-4 AVC codec - Copyleft 2003-2018 - http://www.videolan.org/x264.html - options: cabac=1 ref=5 deblock=1:0:0 analyse=0x3:0x113 me=hex subme=8 psy=1 psy_rd=1.00:0.00 mixed_ref=1 me_range=16 chroma_me=1 trellis=2 8x8dct=1 cqm=0 deadzone=21,11 fast_pskip=1 chroma_qp_offset=-2 threads=11 lookahead_threads=1 sliced_threads=0 nr=0 decimate=1 interlaced=0 bluray_compat=0 constrained_intra=0 bframes=3 b_pyramid=2 b_adapt=1 b_bias=0 direct=3 weightb=1 open_gop=0 weightp=2 keyint=250 keyint_min=23 scenecut=0 intra_refresh=0 rc_lookahead=50 rc=crf mbtree=1 crf=20.0 qcomp=0.60 qpmin=0 qpmax=69 qpstep=4 vbv_maxrate=1000 vbv_bufsize=1000 crf_max=0.0 nal_hrd=none filler=0 ip_ratio=1.40 aq=1:1.00\n[hls @ 0x559fa49a9800] Opening '0002/360p.ts' for writing\nOutput #0, hls, to '0002/360p.m3u8':\n  Metadata:\n    encoder         : Lavf58.20.100\n    Stream #0:0: Video: h264 (libx264), yuv420p(progressive), 654x360 [SAR 1200:1199 DAR 20:11], q=-1--1, 23.98 fps, 90k tbn, 23.98 tbc (default)\n    Metadata:\n      encoder         : Lavc58.35.100 libx264\n    Side data:\n      cpb: bitrate max/min/avg: 1000000/0/0 buffer size: 1000000 vbv_delay: -1\n    Stream #0:1: Audio: aac (LC), 48000 Hz, stereo, fltp, 96 kb/s (default)\n    Metadata:\n      encoder         : Lavc58.35.100 aac\nframe=  170 fps=0.0 q=25.0 size=N/A time=00:00:07.02 bitrate=N/A speed=  14x    \rframe=  315 fps=313 q=25.0 size=N/A time=00:00:13.07 bitrate=N/A speed=  13x    \rframe=  449 fps=298 q=25.0 size=N/A time=00:00:18.66 bitrate=N/A speed=12.4x    \rframe=  592 fps=295 q=25.0 size=N/A time=00:00:24.59 bitrate=N/A speed=12.3x    \rframe=  751 fps=299 q=25.0 size=N/A time=00:00:31.25 bitrate=N/A speed=12.5x    \rframe=  903 fps=300 q=25.0 size=N/A time=00:00:37.63 bitrate=N/A speed=12.5x    \rframe= 1036 fps=295 q=25.0 size=N/A time=00:00:43.13 bitrate=N/A speed=12.3x    \rframe= 1183 fps=295 q=22.0 size=N/A time=00:00:49.36 bitrate=N/A speed=12.3x    \rframe= 1341 fps=297 q=25.0 size=N/A time=00:00:55.93 bitrate=N/A speed=12.4x    \rframe= 1515 fps=302 q=25.0 size=N/A time=00:01:03.08 bitrate=N/A speed=12.6x    \rframe= 1662 fps=301 q=25.0 size=N/A time=00:01:09.26 bitrate=N/A speed=12.5x    \r[hls @ 0x559fa49a9800] Cannot use rename on non file protocol, this may lead to races and temporary partial files\n[hls @ 0x559fa49a9800] Opening '0002/livestream.m3u8' for writing\nframe= 1673 fps=290 q=-1.0 Lsize=N/A time=00:01:09.78 bitrate=N/A speed=12.1x    \nvideo:5570kB audio:821kB subtitle:0kB other streams:0kB global headers:0kB muxing overhead: unknown\n[libx264 @ 0x559fa49d7a80] frame I:70    Avg QP:17.12  size: 19764\n[libx264 @ 0x559fa49d7a80] frame P:442   Avg QP:19.85  size:  5974\n[libx264 @ 0x559fa49d7a80] frame B:1161  Avg QP:22.90  size:  1446\n[libx264 @ 0x559fa49d7a80] consecutive B-frames:  5.9%  1.4% 10.2% 82.5%\n[libx264 @ 0x559fa49d7a80] mb I  I16..4:  8.7% 75.4% 15.9%\n[libx264 @ 0x559fa49d7a80] mb P  I16..4:  2.0%  9.9%  1.3%  P16..4: 41.4% 19.6%  9.8%  0.0%  0.0%    skip:16.1%\n[libx264 @ 0x559fa49d7a80] mb B  I16..4:  0.1%  0.7%  0.1%  B16..8: 40.5%  5.8%  1.0%  direct: 1.9%  skip:49.8%  L0:39.3% L1:51.4% BI: 9.3%\n[libx264 @ 0x559fa49d7a80] 8x8 transform intra:75.6% inter:77.2%\n[libx264 @ 0x559fa49d7a80] direct mvs  spatial:99.5% temporal:0.5%\n[libx264 @ 0x559fa49d7a80] coded y,uvDC,uvAC intra: 80.1% 77.8% 45.5% inter: 13.3% 15.0% 0.3%\n[libx264 @ 0x559fa49d7a80] i16 v,h,dc,p: 64% 10%  3% 23%\n[libx264 @ 0x559fa49d7a80] i8 v,h,dc,ddl,ddr,vr,hd,vl,hu: 24% 11%  6%  7% 10% 12% 10% 10%  9%\n[libx264 @ 0x559fa49d7a80] i4 v,h,dc,ddl,ddr,vr,hd,vl,hu: 29% 10%  3%  7% 12% 13% 10%  8%  7%\n[libx264 @ 0x559fa49d7a80] i8c dc,h,v,p: 30% 24% 32% 14%\n[libx264 @ 0x559fa49d7a80] Weighted P-Frames: Y:0.7% UV:0.0%\n[libx264 @ 0x559fa49d7a80] ref P L0: 61.8% 13.7% 15.2%  5.2%  3.8%  0.1%  0.0%\n[libx264 @ 0x559fa49d7a80] ref B L0: 89.8%  7.4%  2.2%  0.6%\n[libx264 @ 0x559fa49d7a80] ref B L1: 96.9%  3.1%\n[libx264 @ 0x559fa49d7a80] kb/s:653.83\n[aac @ 0x559fa49dff00] Qavg: 195.374\n\n"
    },
    "mp3_command": {
      "command": "ffmpeg -hide_banner -threads 0 -i vsshort-vorbis-subs.mkv -vn -b:a 192k -vn -f mp3 \"0002/audio_192k.mp3\" ",
      "result": true,
      "msg": "ffmpeg -hide_banner -threads 0 -i vsshort-vorbis-subs.mkv -vn -b:a 192k -vn -f mp3 \"0002/audio_192k.mp3\" \nEncode file in 0.884s.\nInput #0, matroska,webm, from 'vsshort-vorbis-subs.mkv':\n  Metadata:\n    encoder         : libebml v0.7.1 + libmatroska v0.7.2\n    creation_time   : 2004-08-10T09:29:39.000000Z\n  Duration: 00:01:11.26, start: 0.000000, bitrate: 1334 kb/s\n    Stream #0:0: Video: msmpeg4v3 (DIV3 / 0x33564944), yuv420p, 640x352, SAR 1:1 DAR 20:11, 23.98 fps, 23.98 tbr, 1k tbn, 1k tbc (default)\n    Stream #0:1: Audio: vorbis, 48000 Hz, stereo, fltp (default)\n    Stream #0:2: Subtitle: subrip (default)\n    Stream #0:3: Subtitle: subrip\nStream mapping:\n  Stream #0:1 -> #0:0 (vorbis (native) -> mp3 (libmp3lame))\nPress [q] to stop, [?] for help\nOutput #0, mp3, to '0002/audio_192k.mp3':\n  Metadata:\n    TSSE            : Lavf58.20.100\n    Stream #0:0: Audio: mp3 (libmp3lame), 48000 Hz, stereo, fltp, 192 kb/s (default)\n    Metadata:\n      encoder         : Lavc58.35.100 libmp3lame\nsize=     768kB time=00:00:41.23 bitrate= 152.6kbits/s speed=82.4x    \rsize=    1637kB time=00:01:09.79 bitrate= 192.1kbits/s speed=83.2x    \nvideo:0kB audio:1636kB subtitle:0kB other streams:0kB global headers:0kB muxing overhead: 0.037062%\n\n"
    },
    "create_thumbnail_command": {
      "command": "ffmpeg -hide_banner -threads 0 -i 0002/360p.mp4 -vframes 1 -an -ss 17 -y  \"0002/thumbnail_1.png\" -vframes 1 -an -ss 35 -y  \"0002/thumbnail_2.png\" -vframes 1 -an -ss 53 -y  \"0002/thumbnail_3.png\" ",
      "result": true,
      "msg": "ffmpeg -hide_banner -threads 0 -i 0002/360p.mp4 -vframes 1 -an -ss 17 -y  \"0002/thumbnail_1.png\" -vframes 1 -an -ss 35 -y  \"0002/thumbnail_2.png\" -vframes 1 -an -ss 53 -y  \"0002/thumbnail_3.png\" \nEncode file in 0.972s.\nInput #0, mov,mp4,m4a,3gp,3g2,mj2, from '0002/360p.mp4':\n  Metadata:\n    major_brand     : isom\n    minor_version   : 512\n    compatible_brands: isomiso2avc1mp41\n    encoder         : Lavf58.20.100\n  Duration: 00:01:09.80, start: 0.000000, bitrate: 757 kb/s\n    Stream #0:0(und): Video: h264 (High) (avc1 / 0x31637661), yuv420p, 654x360 [SAR 1200:1199 DAR 20:11], 653 kb/s, 23.98 fps, 23.98 tbr, 11988 tbn, 47.95 tbc (default)\n    Metadata:\n      handler_name    : VideoHandler\n    Stream #0:1(und): Audio: aac (LC) (mp4a / 0x6134706D), 48000 Hz, stereo, fltp, 96 kb/s (default)\n    Metadata:\n      handler_name    : SoundHandler\nStream mapping:\n  Stream #0:0 -> #0:0 (h264 (native) -> png (native))\n  Stream #0:0 -> #1:0 (h264 (native) -> png (native))\n  Stream #0:0 -> #2:0 (h264 (native) -> png (native))\nPress [q] to stop, [?] for help\nOutput #0, image2, to '0002/thumbnail_1.png':\n  Metadata:\n    major_brand     : isom\n    minor_version   : 512\n    compatible_brands: isomiso2avc1mp41\n    encoder         : Lavf58.20.100\n    Stream #0:0(und): Video: png, rgb24, 654x360 [SAR 1200:1199 DAR 20:11], q=2-31, 200 kb/s, 23.98 fps, 23.98 tbn, 23.98 tbc (default)\n    Metadata:\n      handler_name    : VideoHandler\n      encoder         : Lavc58.35.100 png\nOutput #1, image2, to '0002/thumbnail_2.png':\n  Metadata:\n    major_brand     : isom\n    minor_version   : 512\n    compatible_brands: isomiso2avc1mp41\n    encoder         : Lavf58.20.100\n    Stream #1:0(und): Video: png, rgb24, 654x360 [SAR 1200:1199 DAR 20:11], q=2-31, 200 kb/s, 23.98 fps, 23.98 tbn, 23.98 tbc (default)\n    Metadata:\n      handler_name    : VideoHandler\n      encoder         : Lavc58.35.100 png\nOutput #2, image2, to '0002/thumbnail_3.png':\n  Metadata:\n    major_brand     : isom\n    minor_version   : 512\n    compatible_brands: isomiso2avc1mp41\n    encoder         : Lavf58.20.100\n    Stream #2:0(und): Video: png, rgb24, 654x360 [SAR 1200:1199 DAR 20:11], q=2-31, 200 kb/s, 23.98 fps, 23.98 tbn, 23.98 tbc (default)\n    Metadata:\n      handler_name    : VideoHandler\n      encoder         : Lavc58.35.100 png\nframe=    1 fps=0.0 q=0.0 q=0.0 q=0.0 size=N/A time=00:00:00.00 bitrate=N/A speed=   0x    \rframe=    1 fps=0.0 q=-0.0 Lq=-0.0 q=-0.0 size=N/A time=00:00:00.04 bitrate=N/A speed=0.0455x    \nvideo:659kB audio:0kB subtitle:0kB other streams:0kB global headers:0kB muxing overhead: unknown\n\n"
    },
    "subtitle_command": {
      "command": "ffmpeg -hide_banner -threads 0 -i vsshort-vorbis-subs.mkv -map 0:2 -f webvtt -y  \"0002/subtitle_{'language': ''}.vtt\" -map 0:3 -f webvtt -y  \"0002/subtitle_{'language': ''}.vtt\" ",
      "result": true,
      "msg": "ffmpeg -hide_banner -threads 0 -i vsshort-vorbis-subs.mkv -map 0:2 -f webvtt -y  \"0002/subtitle_{'language': ''}.vtt\" -map 0:3 -f webvtt -y  \"0002/subtitle_{'language': ''}.vtt\" \nEncode file in 0.052s.\nInput #0, matroska,webm, from 'vsshort-vorbis-subs.mkv':\n  Metadata:\n    encoder         : libebml v0.7.1 + libmatroska v0.7.2\n    creation_time   : 2004-08-10T09:29:39.000000Z\n  Duration: 00:01:11.26, start: 0.000000, bitrate: 1334 kb/s\n    Stream #0:0: Video: msmpeg4v3 (DIV3 / 0x33564944), yuv420p, 640x352, SAR 1:1 DAR 20:11, 23.98 fps, 23.98 tbr, 1k tbn, 1k tbc (default)\n    Stream #0:1: Audio: vorbis, 48000 Hz, stereo, fltp (default)\n    Stream #0:2: Subtitle: subrip (default)\n    Stream #0:3: Subtitle: subrip\nOutput #0, webvtt, to '0002/subtitle_{'language': ''}.vtt':\n  Metadata:\n    encoder         : Lavf58.20.100\n    Stream #0:0: Subtitle: webvtt (default)\n    Metadata:\n      encoder         : Lavc58.35.100 webvtt\nOutput #1, webvtt, to '0002/subtitle_{'language': ''}.vtt':\n  Metadata:\n    encoder         : Lavf58.20.100\n    Stream #1:0: Subtitle: webvtt\n    Metadata:\n      encoder         : Lavc58.35.100 webvtt\nStream mapping:\n  Stream #0:2 -> #0:0 (subrip (srt) -> webvtt (native))\n  Stream #0:3 -> #1:0 (subrip (srt) -> webvtt (native))\nPress [q] to stop, [?] for help\nsize=       1kB time=00:01:09.06 bitrate=   0.1kbits/s speed=1.96e+04x    \nvideo:0kB audio:0kB subtitle:1kB other streams:0kB global headers:0kB muxing overhead: unknown\n\n"
    }
  },
  "output_dir": "0002",
  "start": 0,
  "stop": 0,
  "error_encoding": false
}